<svg width="1363" height="163" viewBox="0 0 1363 163" fill="none" xmlns="http://www.w3.org/2000/svg">
<path d="M0 15C0 6.71573 6.71573 0 15 0H37V163H15C6.71573 163 0 156.284 0 148V15Z" fill="#F45F2A"/>
<rect width="1097" height="163" transform="translate(37)" fill="#F0F0F0"/>
<path d="M101.906 53.9219L94.3945 51.2383V48.0859L104.602 52.375V54.6367L101.906 53.9219ZM94.3945 56.1719L101.918 53.4297L104.602 52.7852V55.0352L94.3945 59.3242V56.1719ZM119.895 43.9375V61H116.391V43.9375H119.895ZM125.145 43.9375V46.6914H111.223V43.9375H125.145ZM132 58.1406V52.4922C132 52.0859 131.934 51.7383 131.801 51.4492C131.668 51.1523 131.461 50.9219 131.18 50.7578C130.906 50.5938 130.551 50.5117 130.113 50.5117C129.738 50.5117 129.414 50.5781 129.141 50.7109C128.867 50.8359 128.656 51.0195 128.508 51.2617C128.359 51.4961 128.285 51.7734 128.285 52.0938H124.91C124.91 51.5547 125.035 51.043 125.285 50.5586C125.535 50.0742 125.898 49.6484 126.375 49.2812C126.852 48.9062 127.418 48.6133 128.074 48.4023C128.738 48.1914 129.48 48.0859 130.301 48.0859C131.285 48.0859 132.16 48.25 132.926 48.5781C133.691 48.9062 134.293 49.3984 134.73 50.0547C135.176 50.7109 135.398 51.5312 135.398 52.5156V57.9414C135.398 58.6367 135.441 59.207 135.527 59.6523C135.613 60.0898 135.738 60.4727 135.902 60.8008V61H132.492C132.328 60.6562 132.203 60.2266 132.117 59.7109C132.039 59.1875 132 58.6641 132 58.1406ZM132.445 53.2773L132.469 55.1875H130.582C130.137 55.1875 129.75 55.2383 129.422 55.3398C129.094 55.4414 128.824 55.5859 128.613 55.7734C128.402 55.9531 128.246 56.1641 128.145 56.4062C128.051 56.6484 128.004 56.9141 128.004 57.2031C128.004 57.4922 128.07 57.7539 128.203 57.9883C128.336 58.2148 128.527 58.3945 128.777 58.5273C129.027 58.6523 129.32 58.7148 129.656 58.7148C130.164 58.7148 130.605 58.6133 130.98 58.4102C131.355 58.207 131.645 57.957 131.848 57.6602C132.059 57.3633 132.168 57.082 132.176 56.8164L133.066 58.2461C132.941 58.5664 132.77 58.8984 132.551 59.2422C132.34 59.5859 132.07 59.9102 131.742 60.2148C131.414 60.5117 131.02 60.7578 130.559 60.9531C130.098 61.1406 129.551 61.2344 128.918 61.2344C128.113 61.2344 127.383 61.0742 126.727 60.7539C126.078 60.4258 125.562 59.9766 125.18 59.4062C124.805 58.8281 124.617 58.1719 124.617 57.4375C124.617 56.7734 124.742 56.1836 124.992 55.668C125.242 55.1523 125.609 54.7188 126.094 54.3672C126.586 54.0078 127.199 53.7383 127.934 53.5586C128.668 53.3711 129.52 53.2773 130.488 53.2773H132.445ZM144.211 48.3203V50.7109H136.828V48.3203H144.211ZM138.656 45.1914H142.031V57.1797C142.031 57.5469 142.078 57.8281 142.172 58.0234C142.273 58.2188 142.422 58.3555 142.617 58.4336C142.812 58.5039 143.059 58.5391 143.355 58.5391C143.566 58.5391 143.754 58.5312 143.918 58.5156C144.09 58.4922 144.234 58.4688 144.352 58.4453L144.363 60.9297C144.074 61.0234 143.762 61.0977 143.426 61.1523C143.09 61.207 142.719 61.2344 142.312 61.2344C141.57 61.2344 140.922 61.1133 140.367 60.8711C139.82 60.6211 139.398 60.2227 139.102 59.6758C138.805 59.1289 138.656 58.4102 138.656 57.5195V45.1914ZM152.977 58.1406V52.4922C152.977 52.0859 152.91 51.7383 152.777 51.4492C152.645 51.1523 152.438 50.9219 152.156 50.7578C151.883 50.5938 151.527 50.5117 151.09 50.5117C150.715 50.5117 150.391 50.5781 150.117 50.7109C149.844 50.8359 149.633 51.0195 149.484 51.2617C149.336 51.4961 149.262 51.7734 149.262 52.0938H145.887C145.887 51.5547 146.012 51.043 146.262 50.5586C146.512 50.0742 146.875 49.6484 147.352 49.2812C147.828 48.9062 148.395 48.6133 149.051 48.4023C149.715 48.1914 150.457 48.0859 151.277 48.0859C152.262 48.0859 153.137 48.25 153.902 48.5781C154.668 48.9062 155.27 49.3984 155.707 50.0547C156.152 50.7109 156.375 51.5312 156.375 52.5156V57.9414C156.375 58.6367 156.418 59.207 156.504 59.6523C156.59 60.0898 156.715 60.4727 156.879 60.8008V61H153.469C153.305 60.6562 153.18 60.2266 153.094 59.7109C153.016 59.1875 152.977 58.6641 152.977 58.1406ZM153.422 53.2773L153.445 55.1875H151.559C151.113 55.1875 150.727 55.2383 150.398 55.3398C150.07 55.4414 149.801 55.5859 149.59 55.7734C149.379 55.9531 149.223 56.1641 149.121 56.4062C149.027 56.6484 148.98 56.9141 148.98 57.2031C148.98 57.4922 149.047 57.7539 149.18 57.9883C149.312 58.2148 149.504 58.3945 149.754 58.5273C150.004 58.6523 150.297 58.7148 150.633 58.7148C151.141 58.7148 151.582 58.6133 151.957 58.4102C152.332 58.207 152.621 57.957 152.824 57.6602C153.035 57.3633 153.145 57.082 153.152 56.8164L154.043 58.2461C153.918 58.5664 153.746 58.8984 153.527 59.2422C153.316 59.5859 153.047 59.9102 152.719 60.2148C152.391 60.5117 151.996 60.7578 151.535 60.9531C151.074 61.1406 150.527 61.2344 149.895 61.2344C149.09 61.2344 148.359 61.0742 147.703 60.7539C147.055 60.4258 146.539 59.9766 146.156 59.4062C145.781 58.8281 145.594 58.1719 145.594 57.4375C145.594 56.7734 145.719 56.1836 145.969 55.668C146.219 55.1523 146.586 54.7188 147.07 54.3672C147.562 54.0078 148.176 53.7383 148.91 53.5586C149.645 53.3711 150.496 53.2773 151.465 53.2773H153.422ZM162.598 57.7188L165.234 48.3203H167.379L166.688 52.0117L164.051 61H162.258L162.598 57.7188ZM161.262 48.3203L163.148 57.707L163.324 61H161.215L158.004 48.3203H161.262ZM169.793 57.5547L171.633 48.3203H174.902L171.691 61H169.594L169.793 57.5547ZM167.672 48.3203L170.297 57.6484L170.66 61H168.855L166.219 52.0234L165.551 48.3203H167.672ZM180.223 57.7188L182.859 48.3203H185.004L184.312 52.0117L181.676 61H179.883L180.223 57.7188ZM178.887 48.3203L180.773 57.707L180.949 61H178.84L175.629 48.3203H178.887ZM187.418 57.5547L189.258 48.3203H192.527L189.316 61H187.219L187.418 57.5547ZM185.297 48.3203L187.922 57.6484L188.285 61H186.48L183.844 52.0234L183.176 48.3203H185.297ZM201.727 57.9648V48.3203H205.102V61H201.926L201.727 57.9648ZM202.102 55.3633L203.098 55.3398C203.098 56.1836 203 56.9688 202.805 57.6953C202.609 58.4141 202.316 59.0391 201.926 59.5703C201.535 60.0938 201.043 60.5039 200.449 60.8008C199.855 61.0898 199.156 61.2344 198.352 61.2344C197.734 61.2344 197.164 61.1484 196.641 60.9766C196.125 60.7969 195.68 60.5195 195.305 60.1445C194.938 59.7617 194.648 59.2734 194.438 58.6797C194.234 58.0781 194.133 57.3555 194.133 56.5117V48.3203H197.508V56.5352C197.508 56.9102 197.551 57.2266 197.637 57.4844C197.73 57.7422 197.859 57.9531 198.023 58.1172C198.188 58.2812 198.379 58.3984 198.598 58.4688C198.824 58.5391 199.074 58.5742 199.348 58.5742C200.043 58.5742 200.59 58.4336 200.988 58.1523C201.395 57.8711 201.68 57.4883 201.844 57.0039C202.016 56.5117 202.102 55.9648 202.102 55.3633ZM210.996 51.0039H212.801C213.379 51.0039 213.855 50.9062 214.23 50.7109C214.605 50.5078 214.883 50.2266 215.062 49.8672C215.25 49.5 215.344 49.0742 215.344 48.5898C215.344 48.1523 215.258 47.7656 215.086 47.4297C214.922 47.0859 214.668 46.8203 214.324 46.6328C213.98 46.4375 213.547 46.3398 213.023 46.3398C212.609 46.3398 212.227 46.4219 211.875 46.5859C211.523 46.75 211.242 46.9805 211.031 47.2773C210.82 47.5742 210.715 47.9336 210.715 48.3555H207.328C207.328 47.418 207.578 46.6016 208.078 45.9062C208.586 45.2109 209.266 44.668 210.117 44.2773C210.969 43.8867 211.906 43.6914 212.93 43.6914C214.086 43.6914 215.098 43.8789 215.965 44.2539C216.832 44.6211 217.508 45.1641 217.992 45.8828C218.477 46.6016 218.719 47.4922 218.719 48.5547C218.719 49.0938 218.594 49.6172 218.344 50.125C218.094 50.625 217.734 51.0781 217.266 51.4844C216.805 51.8828 216.242 52.2031 215.578 52.4453C214.914 52.6797 214.168 52.7969 213.34 52.7969H210.996V51.0039ZM210.996 53.5703V51.8242H213.34C214.27 51.8242 215.086 51.9297 215.789 52.1406C216.492 52.3516 217.082 52.6562 217.559 53.0547C218.035 53.4453 218.395 53.9102 218.637 54.4492C218.879 54.9805 219 55.5703 219 56.2188C219 57.0156 218.848 57.7266 218.543 58.3516C218.238 58.9688 217.809 59.4922 217.254 59.9219C216.707 60.3516 216.066 60.6797 215.332 60.9062C214.598 61.125 213.797 61.2344 212.93 61.2344C212.211 61.2344 211.504 61.1367 210.809 60.9414C210.121 60.7383 209.496 60.4375 208.934 60.0391C208.379 59.6328 207.934 59.125 207.598 58.5156C207.27 57.8984 207.105 57.168 207.105 56.3242H210.492C210.492 56.7617 210.602 57.1523 210.82 57.4961C211.039 57.8398 211.34 58.1094 211.723 58.3047C212.113 58.5 212.547 58.5977 213.023 58.5977C213.562 58.5977 214.023 58.5 214.406 58.3047C214.797 58.1016 215.094 57.8203 215.297 57.4609C215.508 57.0938 215.613 56.668 215.613 56.1836C215.613 55.5586 215.5 55.0586 215.273 54.6836C215.047 54.3008 214.723 54.0195 214.301 53.8398C213.879 53.6602 213.379 53.5703 212.801 53.5703H210.996Z" fill="#888888"/>
<path d="M118.594 98.4219V104.75H101.086V98.4219H118.594ZM103.828 84.875V119H95.6016V84.875H103.828ZM124.125 84.875V119H115.922V84.875H124.125ZM127.992 106.578V106.086C127.992 104.227 128.258 102.516 128.789 100.953C129.32 99.375 130.102 98.0078 131.133 96.8516C132.164 95.6953 133.438 94.7969 134.953 94.1562C136.469 93.5 138.219 93.1719 140.203 93.1719C142.203 93.1719 143.961 93.5 145.477 94.1562C147.008 94.7969 148.289 95.6953 149.32 96.8516C150.352 98.0078 151.133 99.375 151.664 100.953C152.195 102.516 152.461 104.227 152.461 106.086V106.578C152.461 108.422 152.195 110.133 151.664 111.711C151.133 113.273 150.352 114.641 149.32 115.812C148.289 116.969 147.016 117.867 145.5 118.508C143.984 119.148 142.234 119.469 140.25 119.469C138.266 119.469 136.508 119.148 134.977 118.508C133.445 117.867 132.164 116.969 131.133 115.812C130.102 114.641 129.32 113.273 128.789 111.711C128.258 110.133 127.992 108.422 127.992 106.578ZM135.891 106.086V106.578C135.891 107.531 135.961 108.422 136.102 109.25C136.242 110.078 136.477 110.805 136.805 111.43C137.133 112.039 137.578 112.516 138.141 112.859C138.703 113.203 139.406 113.375 140.25 113.375C141.078 113.375 141.766 113.203 142.312 112.859C142.875 112.516 143.32 112.039 143.648 111.43C143.977 110.805 144.211 110.078 144.352 109.25C144.492 108.422 144.562 107.531 144.562 106.578V106.086C144.562 105.164 144.492 104.297 144.352 103.484C144.211 102.656 143.977 101.93 143.648 101.305C143.32 100.664 142.875 100.164 142.312 99.8047C141.75 99.4453 141.047 99.2656 140.203 99.2656C139.375 99.2656 138.68 99.4453 138.117 99.8047C137.57 100.164 137.133 100.664 136.805 101.305C136.477 101.93 136.242 102.656 136.102 103.484C135.961 104.297 135.891 105.164 135.891 106.086ZM163.688 111.453L168.375 93.6406H173.32L171.562 102.57L166.922 119H162.961L163.688 111.453ZM161.836 93.6406L164.742 111.312L165.07 119H160.266L154.266 93.6406H161.836ZM177.492 110.938L180.422 93.6406H187.992L182.039 119H177.234L177.492 110.938ZM173.883 93.6406L178.617 111.406L179.344 119H175.336L170.789 102.617L169.102 93.6406H173.883ZM218.297 84.875V119H210.07V84.875H218.297ZM228.562 84.875V91.2266H200.039V84.875H228.562ZM225.773 106.578V106.086C225.773 104.227 226.039 102.516 226.57 100.953C227.102 99.375 227.883 98.0078 228.914 96.8516C229.945 95.6953 231.219 94.7969 232.734 94.1562C234.25 93.5 236 93.1719 237.984 93.1719C239.984 93.1719 241.742 93.5 243.258 94.1562C244.789 94.7969 246.07 95.6953 247.102 96.8516C248.133 98.0078 248.914 99.375 249.445 100.953C249.977 102.516 250.242 104.227 250.242 106.086V106.578C250.242 108.422 249.977 110.133 249.445 111.711C248.914 113.273 248.133 114.641 247.102 115.812C246.07 116.969 244.797 117.867 243.281 118.508C241.766 119.148 240.016 119.469 238.031 119.469C236.047 119.469 234.289 119.148 232.758 118.508C231.227 117.867 229.945 116.969 228.914 115.812C227.883 114.641 227.102 113.273 226.57 111.711C226.039 110.133 225.773 108.422 225.773 106.578ZM233.672 106.086V106.578C233.672 107.531 233.742 108.422 233.883 109.25C234.023 110.078 234.258 110.805 234.586 111.43C234.914 112.039 235.359 112.516 235.922 112.859C236.484 113.203 237.188 113.375 238.031 113.375C238.859 113.375 239.547 113.203 240.094 112.859C240.656 112.516 241.102 112.039 241.43 111.43C241.758 110.805 241.992 110.078 242.133 109.25C242.273 108.422 242.344 107.531 242.344 106.578V106.086C242.344 105.164 242.273 104.297 242.133 103.484C241.992 102.656 241.758 101.93 241.43 101.305C241.102 100.664 240.656 100.164 240.094 99.8047C239.531 99.4453 238.828 99.2656 237.984 99.2656C237.156 99.2656 236.461 99.4453 235.898 99.8047C235.352 100.164 234.914 100.664 234.586 101.305C234.258 101.93 234.023 102.656 233.883 103.484C233.742 104.297 233.672 105.164 233.672 106.086ZM266.086 84.875H279.516C282.141 84.875 284.422 85.2656 286.359 86.0469C288.297 86.8281 289.789 87.9844 290.836 89.5156C291.898 91.0469 292.43 92.9375 292.43 95.1875C292.43 97.1406 292.125 98.7734 291.516 100.086C290.906 101.398 290.055 102.484 288.961 103.344C287.883 104.188 286.625 104.883 285.188 105.43L282.492 106.953H271.219L271.172 100.602H279.516C280.562 100.602 281.43 100.414 282.117 100.039C282.805 99.6641 283.32 99.1328 283.664 98.4453C284.023 97.7422 284.203 96.9062 284.203 95.9375C284.203 94.9531 284.023 94.1094 283.664 93.4062C283.305 92.7031 282.773 92.1641 282.07 91.7891C281.383 91.4141 280.531 91.2266 279.516 91.2266H274.312V119H266.086V84.875ZM284.766 119L277.219 103.906L285.938 103.859L293.578 118.648V119H284.766ZM311.836 112.836V93.6406H319.758V119H312.352L311.836 112.836ZM312.586 107.68L314.648 107.633C314.648 109.336 314.445 110.914 314.039 112.367C313.633 113.805 313.031 115.055 312.234 116.117C311.453 117.18 310.484 118.008 309.328 118.602C308.188 119.18 306.867 119.469 305.367 119.469C304.117 119.469 302.969 119.297 301.922 118.953C300.891 118.594 300 118.039 299.25 117.289C298.5 116.523 297.914 115.547 297.492 114.359C297.086 113.156 296.883 111.719 296.883 110.047V93.6406H304.781V110.094C304.781 110.656 304.852 111.141 304.992 111.547C305.133 111.953 305.336 112.297 305.602 112.578C305.867 112.844 306.195 113.047 306.586 113.188C306.992 113.312 307.453 113.375 307.969 113.375C309.156 113.375 310.086 113.125 310.758 112.625C311.43 112.125 311.898 111.445 312.164 110.586C312.445 109.727 312.586 108.758 312.586 107.68ZM331.875 99.0547V119H323.977V93.6406H331.383L331.875 99.0547ZM330.938 105.453L329.086 105.5C329.086 103.562 329.32 101.836 329.789 100.32C330.258 98.7891 330.922 97.4922 331.781 96.4297C332.641 95.3672 333.664 94.5625 334.852 94.0156C336.055 93.4531 337.391 93.1719 338.859 93.1719C340.031 93.1719 341.102 93.3438 342.07 93.6875C343.055 94.0312 343.898 94.5859 344.602 95.3516C345.32 96.1172 345.867 97.1328 346.242 98.3984C346.633 99.6484 346.828 101.195 346.828 103.039V119H338.883V103.016C338.883 102 338.742 101.227 338.461 100.695C338.18 100.148 337.773 99.7734 337.242 99.5703C336.711 99.3672 336.062 99.2656 335.297 99.2656C334.484 99.2656 333.797 99.4219 333.234 99.7344C332.672 100.047 332.219 100.484 331.875 101.047C331.547 101.594 331.305 102.242 331.148 102.992C331.008 103.742 330.938 104.562 330.938 105.453ZM363.773 108.195H357.047C357.047 106.82 357.141 105.609 357.328 104.562C357.531 103.5 357.875 102.547 358.359 101.703C358.844 100.859 359.5 100.078 360.328 99.3594C361.062 98.75 361.695 98.1641 362.227 97.6016C362.758 97.0391 363.164 96.4688 363.445 95.8906C363.727 95.3125 363.867 94.6953 363.867 94.0391C363.867 93.2266 363.75 92.5625 363.516 92.0469C363.297 91.5312 362.961 91.1484 362.508 90.8984C362.07 90.6328 361.516 90.5 360.844 90.5C360.297 90.5 359.781 90.6328 359.297 90.8984C358.828 91.1641 358.445 91.5781 358.148 92.1406C357.852 92.6875 357.688 93.4141 357.656 94.3203H349.711C349.758 91.9922 350.273 90.1016 351.258 88.6484C352.258 87.1797 353.586 86.1094 355.242 85.4375C356.914 84.75 358.781 84.4062 360.844 84.4062C363.125 84.4062 365.086 84.7578 366.727 85.4609C368.367 86.1641 369.625 87.2109 370.5 88.6016C371.375 89.9766 371.812 91.6719 371.812 93.6875C371.812 95.0312 371.555 96.2031 371.039 97.2031C370.539 98.1875 369.859 99.1094 369 99.9688C368.156 100.812 367.211 101.719 366.164 102.688C365.258 103.484 364.641 104.297 364.312 105.125C363.984 105.938 363.805 106.961 363.773 108.195ZM356.086 115.32C356.086 114.195 356.492 113.258 357.305 112.508C358.117 111.742 359.172 111.359 360.469 111.359C361.766 111.359 362.82 111.742 363.633 112.508C364.445 113.258 364.852 114.195 364.852 115.32C364.852 116.445 364.445 117.391 363.633 118.156C362.82 118.906 361.766 119.281 360.469 119.281C359.172 119.281 358.117 118.906 357.305 118.156C356.492 117.391 356.086 116.445 356.086 115.32Z" fill="black"/>
<path d="M1134 0H1348C1356.28 0 1363 6.71573 1363 15V148C1363 156.284 1356.28 163 1348 163H1134V0Z" fill="#0FA3B1"/>
<path d="M1260.62 78.8847C1263.81 78.8847 1266.93 79.805 1269.59 81.5293C1272.25 83.2536 1274.32 85.7044 1275.54 88.5718C1276.76 91.4391 1277.08 94.5943 1276.46 97.6383C1275.84 100.682 1274.3 103.478 1272.04 105.673C1269.78 107.868 1266.9 109.362 1263.77 109.968C1260.63 110.573 1257.39 110.262 1254.43 109.075C1251.48 107.887 1248.96 105.876 1247.18 103.295C1245.41 100.714 1244.46 97.6806 1244.46 94.5769C1244.46 90.4151 1246.16 86.4237 1249.19 83.4808C1252.22 80.538 1256.33 78.8847 1260.62 78.8847ZM1260.62 73.6539C1256.36 73.6539 1252.19 74.881 1248.65 77.1801C1245.11 79.4791 1242.35 82.7469 1240.72 86.57C1239.09 90.3932 1238.66 94.6001 1239.49 98.6588C1240.32 102.717 1242.37 106.446 1245.39 109.372C1248.4 112.298 1252.24 114.291 1256.41 115.098C1260.59 115.905 1264.92 115.491 1268.86 113.907C1272.79 112.324 1276.16 109.642 1278.52 106.201C1280.89 102.76 1282.15 98.7151 1282.15 94.5769C1282.15 89.0278 1279.88 83.706 1275.85 79.7821C1271.81 75.8583 1266.33 73.6539 1260.62 73.6539Z" fill="white"/>
<path d="M1274.08 47.5H1220.23C1218.8 47.5 1217.43 48.0511 1216.42 49.0321C1215.41 50.013 1214.85 51.3435 1214.85 52.7307V105.038C1214.85 106.426 1215.41 107.756 1216.42 108.737C1217.43 109.718 1218.8 110.269 1220.23 110.269H1231V105.038H1220.23V68.423H1279.46V52.7307C1279.46 51.3435 1278.89 50.013 1277.88 49.0321C1276.87 48.0511 1275.5 47.5 1274.08 47.5ZM1220.23 63.1922V52.7307H1274.08V63.1922H1220.23Z" fill="white"/>
<path d="M1255.23 86.731V102.423L1268.69 94.5771L1255.23 86.731Z" fill="white"/>
</svg>
