<svg width="1363" height="163" viewBox="0 0 1363 163" fill="none" xmlns="http://www.w3.org/2000/svg">
<path d="M0 15C0 6.71573 6.71573 0 15 0H37V163H15C6.71573 163 0 156.284 0 148V15Z" fill="#F45F2A"/>
<rect width="1097" height="163" transform="translate(37)" fill="#F0F0F0"/>
<path d="M101.906 53.9219L94.3945 51.2383V48.0859L104.602 52.375V54.6367L101.906 53.9219ZM94.3945 56.1719L101.918 53.4297L104.602 52.7852V55.0352L94.3945 59.3242V56.1719ZM119.895 43.9375V61H116.391V43.9375H119.895ZM125.145 43.9375V46.6914H111.223V43.9375H125.145ZM132 58.1406V52.4922C132 52.0859 131.934 51.7383 131.801 51.4492C131.668 51.1523 131.461 50.9219 131.18 50.7578C130.906 50.5938 130.551 50.5117 130.113 50.5117C129.738 50.5117 129.414 50.5781 129.141 50.7109C128.867 50.8359 128.656 51.0195 128.508 51.2617C128.359 51.4961 128.285 51.7734 128.285 52.0938H124.91C124.91 51.5547 125.035 51.043 125.285 50.5586C125.535 50.0742 125.898 49.6484 126.375 49.2812C126.852 48.9062 127.418 48.6133 128.074 48.4023C128.738 48.1914 129.48 48.0859 130.301 48.0859C131.285 48.0859 132.16 48.25 132.926 48.5781C133.691 48.9062 134.293 49.3984 134.73 50.0547C135.176 50.7109 135.398 51.5312 135.398 52.5156V57.9414C135.398 58.6367 135.441 59.207 135.527 59.6523C135.613 60.0898 135.738 60.4727 135.902 60.8008V61H132.492C132.328 60.6562 132.203 60.2266 132.117 59.7109C132.039 59.1875 132 58.6641 132 58.1406ZM132.445 53.2773L132.469 55.1875H130.582C130.137 55.1875 129.75 55.2383 129.422 55.3398C129.094 55.4414 128.824 55.5859 128.613 55.7734C128.402 55.9531 128.246 56.1641 128.145 56.4062C128.051 56.6484 128.004 56.9141 128.004 57.2031C128.004 57.4922 128.07 57.7539 128.203 57.9883C128.336 58.2148 128.527 58.3945 128.777 58.5273C129.027 58.6523 129.32 58.7148 129.656 58.7148C130.164 58.7148 130.605 58.6133 130.98 58.4102C131.355 58.207 131.645 57.957 131.848 57.6602C132.059 57.3633 132.168 57.082 132.176 56.8164L133.066 58.2461C132.941 58.5664 132.77 58.8984 132.551 59.2422C132.34 59.5859 132.07 59.9102 131.742 60.2148C131.414 60.5117 131.02 60.7578 130.559 60.9531C130.098 61.1406 129.551 61.2344 128.918 61.2344C128.113 61.2344 127.383 61.0742 126.727 60.7539C126.078 60.4258 125.562 59.9766 125.18 59.4062C124.805 58.8281 124.617 58.1719 124.617 57.4375C124.617 56.7734 124.742 56.1836 124.992 55.668C125.242 55.1523 125.609 54.7188 126.094 54.3672C126.586 54.0078 127.199 53.7383 127.934 53.5586C128.668 53.3711 129.52 53.2773 130.488 53.2773H132.445ZM144.211 48.3203V50.7109H136.828V48.3203H144.211ZM138.656 45.1914H142.031V57.1797C142.031 57.5469 142.078 57.8281 142.172 58.0234C142.273 58.2188 142.422 58.3555 142.617 58.4336C142.812 58.5039 143.059 58.5391 143.355 58.5391C143.566 58.5391 143.754 58.5312 143.918 58.5156C144.09 58.4922 144.234 58.4688 144.352 58.4453L144.363 60.9297C144.074 61.0234 143.762 61.0977 143.426 61.1523C143.09 61.207 142.719 61.2344 142.312 61.2344C141.57 61.2344 140.922 61.1133 140.367 60.8711C139.82 60.6211 139.398 60.2227 139.102 59.6758C138.805 59.1289 138.656 58.4102 138.656 57.5195V45.1914ZM152.977 58.1406V52.4922C152.977 52.0859 152.91 51.7383 152.777 51.4492C152.645 51.1523 152.438 50.9219 152.156 50.7578C151.883 50.5938 151.527 50.5117 151.09 50.5117C150.715 50.5117 150.391 50.5781 150.117 50.7109C149.844 50.8359 149.633 51.0195 149.484 51.2617C149.336 51.4961 149.262 51.7734 149.262 52.0938H145.887C145.887 51.5547 146.012 51.043 146.262 50.5586C146.512 50.0742 146.875 49.6484 147.352 49.2812C147.828 48.9062 148.395 48.6133 149.051 48.4023C149.715 48.1914 150.457 48.0859 151.277 48.0859C152.262 48.0859 153.137 48.25 153.902 48.5781C154.668 48.9062 155.27 49.3984 155.707 50.0547C156.152 50.7109 156.375 51.5312 156.375 52.5156V57.9414C156.375 58.6367 156.418 59.207 156.504 59.6523C156.59 60.0898 156.715 60.4727 156.879 60.8008V61H153.469C153.305 60.6562 153.18 60.2266 153.094 59.7109C153.016 59.1875 152.977 58.6641 152.977 58.1406ZM153.422 53.2773L153.445 55.1875H151.559C151.113 55.1875 150.727 55.2383 150.398 55.3398C150.07 55.4414 149.801 55.5859 149.59 55.7734C149.379 55.9531 149.223 56.1641 149.121 56.4062C149.027 56.6484 148.98 56.9141 148.98 57.2031C148.98 57.4922 149.047 57.7539 149.18 57.9883C149.312 58.2148 149.504 58.3945 149.754 58.5273C150.004 58.6523 150.297 58.7148 150.633 58.7148C151.141 58.7148 151.582 58.6133 151.957 58.4102C152.332 58.207 152.621 57.957 152.824 57.6602C153.035 57.3633 153.145 57.082 153.152 56.8164L154.043 58.2461C153.918 58.5664 153.746 58.8984 153.527 59.2422C153.316 59.5859 153.047 59.9102 152.719 60.2148C152.391 60.5117 151.996 60.7578 151.535 60.9531C151.074 61.1406 150.527 61.2344 149.895 61.2344C149.09 61.2344 148.359 61.0742 147.703 60.7539C147.055 60.4258 146.539 59.9766 146.156 59.4062C145.781 58.8281 145.594 58.1719 145.594 57.4375C145.594 56.7734 145.719 56.1836 145.969 55.668C146.219 55.1523 146.586 54.7188 147.07 54.3672C147.562 54.0078 148.176 53.7383 148.91 53.5586C149.645 53.3711 150.496 53.2773 151.465 53.2773H153.422ZM162.598 57.7188L165.234 48.3203H167.379L166.688 52.0117L164.051 61H162.258L162.598 57.7188ZM161.262 48.3203L163.148 57.707L163.324 61H161.215L158.004 48.3203H161.262ZM169.793 57.5547L171.633 48.3203H174.902L171.691 61H169.594L169.793 57.5547ZM167.672 48.3203L170.297 57.6484L170.66 61H168.855L166.219 52.0234L165.551 48.3203H167.672ZM180.223 57.7188L182.859 48.3203H185.004L184.312 52.0117L181.676 61H179.883L180.223 57.7188ZM178.887 48.3203L180.773 57.707L180.949 61H178.84L175.629 48.3203H178.887ZM187.418 57.5547L189.258 48.3203H192.527L189.316 61H187.219L187.418 57.5547ZM185.297 48.3203L187.922 57.6484L188.285 61H186.48L183.844 52.0234L183.176 48.3203H185.297ZM201.727 57.9648V48.3203H205.102V61H201.926L201.727 57.9648ZM202.102 55.3633L203.098 55.3398C203.098 56.1836 203 56.9688 202.805 57.6953C202.609 58.4141 202.316 59.0391 201.926 59.5703C201.535 60.0938 201.043 60.5039 200.449 60.8008C199.855 61.0898 199.156 61.2344 198.352 61.2344C197.734 61.2344 197.164 61.1484 196.641 60.9766C196.125 60.7969 195.68 60.5195 195.305 60.1445C194.938 59.7617 194.648 59.2734 194.438 58.6797C194.234 58.0781 194.133 57.3555 194.133 56.5117V48.3203H197.508V56.5352C197.508 56.9102 197.551 57.2266 197.637 57.4844C197.73 57.7422 197.859 57.9531 198.023 58.1172C198.188 58.2812 198.379 58.3984 198.598 58.4688C198.824 58.5391 199.074 58.5742 199.348 58.5742C200.043 58.5742 200.59 58.4336 200.988 58.1523C201.395 57.8711 201.68 57.4883 201.844 57.0039C202.016 56.5117 202.102 55.9648 202.102 55.3633ZM210.996 51.0039H212.801C213.379 51.0039 213.855 50.9062 214.23 50.7109C214.605 50.5078 214.883 50.2266 215.062 49.8672C215.25 49.5 215.344 49.0742 215.344 48.5898C215.344 48.1523 215.258 47.7656 215.086 47.4297C214.922 47.0859 214.668 46.8203 214.324 46.6328C213.98 46.4375 213.547 46.3398 213.023 46.3398C212.609 46.3398 212.227 46.4219 211.875 46.5859C211.523 46.75 211.242 46.9805 211.031 47.2773C210.82 47.5742 210.715 47.9336 210.715 48.3555H207.328C207.328 47.418 207.578 46.6016 208.078 45.9062C208.586 45.2109 209.266 44.668 210.117 44.2773C210.969 43.8867 211.906 43.6914 212.93 43.6914C214.086 43.6914 215.098 43.8789 215.965 44.2539C216.832 44.6211 217.508 45.1641 217.992 45.8828C218.477 46.6016 218.719 47.4922 218.719 48.5547C218.719 49.0938 218.594 49.6172 218.344 50.125C218.094 50.625 217.734 51.0781 217.266 51.4844C216.805 51.8828 216.242 52.2031 215.578 52.4453C214.914 52.6797 214.168 52.7969 213.34 52.7969H210.996V51.0039ZM210.996 53.5703V51.8242H213.34C214.27 51.8242 215.086 51.9297 215.789 52.1406C216.492 52.3516 217.082 52.6562 217.559 53.0547C218.035 53.4453 218.395 53.9102 218.637 54.4492C218.879 54.9805 219 55.5703 219 56.2188C219 57.0156 218.848 57.7266 218.543 58.3516C218.238 58.9688 217.809 59.4922 217.254 59.9219C216.707 60.3516 216.066 60.6797 215.332 60.9062C214.598 61.125 213.797 61.2344 212.93 61.2344C212.211 61.2344 211.504 61.1367 210.809 60.9414C210.121 60.7383 209.496 60.4375 208.934 60.0391C208.379 59.6328 207.934 59.125 207.598 58.5156C207.27 57.8984 207.105 57.168 207.105 56.3242H210.492C210.492 56.7617 210.602 57.1523 210.82 57.4961C211.039 57.8398 211.34 58.1094 211.723 58.3047C212.113 58.5 212.547 58.5977 213.023 58.5977C213.562 58.5977 214.023 58.5 214.406 58.3047C214.797 58.1016 215.094 57.8203 215.297 57.4609C215.508 57.0938 215.613 56.668 215.613 56.1836C215.613 55.5586 215.5 55.0586 215.273 54.6836C215.047 54.3008 214.723 54.0195 214.301 53.8398C213.879 53.6602 213.379 53.5703 212.801 53.5703H210.996Z" fill="#888888"/>
<path d="M114.117 84.875H122.344V107.164C122.344 109.82 121.789 112.07 120.68 113.914C119.57 115.742 118.016 117.125 116.016 118.062C114.016 119 111.664 119.469 108.961 119.469C106.289 119.469 103.938 119 101.906 118.062C99.8906 117.125 98.3125 115.742 97.1719 113.914C96.0469 112.07 95.4844 109.82 95.4844 107.164V84.875H103.734V107.164C103.734 108.57 103.938 109.719 104.344 110.609C104.75 111.484 105.344 112.125 106.125 112.531C106.906 112.938 107.852 113.141 108.961 113.141C110.086 113.141 111.031 112.938 111.797 112.531C112.562 112.125 113.141 111.484 113.531 110.609C113.922 109.719 114.117 108.57 114.117 107.164V84.875ZM134.906 99.0547V119H127.008V93.6406H134.414L134.906 99.0547ZM133.969 105.453L132.117 105.5C132.117 103.562 132.352 101.836 132.82 100.32C133.289 98.7891 133.953 97.4922 134.812 96.4297C135.672 95.3672 136.695 94.5625 137.883 94.0156C139.086 93.4531 140.422 93.1719 141.891 93.1719C143.062 93.1719 144.133 93.3438 145.102 93.6875C146.086 94.0312 146.93 94.5859 147.633 95.3516C148.352 96.1172 148.898 97.1328 149.273 98.3984C149.664 99.6484 149.859 101.195 149.859 103.039V119H141.914V103.016C141.914 102 141.773 101.227 141.492 100.695C141.211 100.148 140.805 99.7734 140.273 99.5703C139.742 99.3672 139.094 99.2656 138.328 99.2656C137.516 99.2656 136.828 99.4219 136.266 99.7344C135.703 100.047 135.25 100.484 134.906 101.047C134.578 101.594 134.336 102.242 134.18 102.992C134.039 103.742 133.969 104.562 133.969 105.453ZM162.586 93.6406V119H154.664V93.6406H162.586ZM154.195 87.1016C154.195 85.9766 154.602 85.0547 155.414 84.3359C156.227 83.6172 157.281 83.2578 158.578 83.2578C159.875 83.2578 160.93 83.6172 161.742 84.3359C162.555 85.0547 162.961 85.9766 162.961 87.1016C162.961 88.2266 162.555 89.1484 161.742 89.8672C160.93 90.5859 159.875 90.9453 158.578 90.9453C157.281 90.9453 156.227 90.5859 155.414 89.8672C154.602 89.1484 154.195 88.2266 154.195 87.1016ZM180.82 93.6406V99.125H165.539V93.6406H180.82ZM168.75 87.3359H176.648V110.727C176.648 111.398 176.727 111.922 176.883 112.297C177.039 112.656 177.305 112.914 177.68 113.07C178.07 113.211 178.586 113.281 179.227 113.281C179.68 113.281 180.055 113.273 180.352 113.258C180.648 113.227 180.93 113.188 181.195 113.141V118.789C180.523 119.008 179.82 119.172 179.086 119.281C178.352 119.406 177.57 119.469 176.742 119.469C175.055 119.469 173.609 119.203 172.406 118.672C171.219 118.141 170.312 117.305 169.688 116.164C169.062 115.023 168.75 113.539 168.75 111.711V87.3359ZM211.406 84.875V119H203.18V84.875H211.406ZM221.672 84.875V91.2266H193.148V84.875H221.672ZM234.961 119.469C232.898 119.469 231.055 119.148 229.43 118.508C227.805 117.852 226.43 116.953 225.305 115.812C224.195 114.672 223.344 113.359 222.75 111.875C222.172 110.391 221.883 108.82 221.883 107.164V106.273C221.883 104.414 222.141 102.695 222.656 101.117C223.172 99.5234 223.938 98.1328 224.953 96.9453C225.969 95.7578 227.242 94.8359 228.773 94.1797C230.305 93.5078 232.086 93.1719 234.117 93.1719C235.914 93.1719 237.523 93.4609 238.945 94.0391C240.367 94.6172 241.57 95.4453 242.555 96.5234C243.555 97.6016 244.312 98.9062 244.828 100.438C245.359 101.969 245.625 103.688 245.625 105.594V108.805H224.906V103.859H237.914V103.25C237.93 102.406 237.781 101.688 237.469 101.094C237.172 100.5 236.734 100.047 236.156 99.7344C235.578 99.4219 234.875 99.2656 234.047 99.2656C233.188 99.2656 232.477 99.4531 231.914 99.8281C231.367 100.203 230.938 100.719 230.625 101.375C230.328 102.016 230.117 102.758 229.992 103.602C229.867 104.445 229.805 105.336 229.805 106.273V107.164C229.805 108.102 229.93 108.953 230.18 109.719C230.445 110.484 230.82 111.141 231.305 111.688C231.805 112.219 232.398 112.633 233.086 112.93C233.789 113.227 234.586 113.375 235.477 113.375C236.555 113.375 237.617 113.172 238.664 112.766C239.711 112.359 240.609 111.688 241.359 110.75L244.945 115.016C244.43 115.75 243.695 116.461 242.742 117.148C241.805 117.836 240.68 118.398 239.367 118.836C238.055 119.258 236.586 119.469 234.961 119.469ZM262.125 111.875C262.125 111.438 261.977 111.062 261.68 110.75C261.398 110.422 260.898 110.125 260.18 109.859C259.461 109.578 258.453 109.297 257.156 109.016C255.922 108.75 254.758 108.398 253.664 107.961C252.586 107.523 251.641 106.992 250.828 106.367C250.016 105.742 249.375 105 248.906 104.141C248.453 103.281 248.227 102.297 248.227 101.188C248.227 100.109 248.453 99.0938 248.906 98.1406C249.375 97.1719 250.055 96.3203 250.945 95.5859C251.852 94.8359 252.953 94.25 254.25 93.8281C255.547 93.3906 257.023 93.1719 258.68 93.1719C260.961 93.1719 262.93 93.5234 264.586 94.2266C266.242 94.9141 267.516 95.8828 268.406 97.1328C269.312 98.3672 269.766 99.7969 269.766 101.422H261.867C261.867 100.781 261.758 100.234 261.539 99.7812C261.336 99.3281 261 98.9844 260.531 98.75C260.062 98.5 259.438 98.375 258.656 98.375C258.109 98.375 257.609 98.4766 257.156 98.6797C256.719 98.8828 256.367 99.1641 256.102 99.5234C255.836 99.8828 255.703 100.305 255.703 100.789C255.703 101.133 255.781 101.445 255.938 101.727C256.109 101.992 256.367 102.242 256.711 102.477C257.055 102.695 257.492 102.898 258.023 103.086C258.555 103.258 259.195 103.414 259.945 103.555C261.648 103.867 263.242 104.312 264.727 104.891C266.211 105.469 267.414 106.289 268.336 107.352C269.273 108.414 269.742 109.844 269.742 111.641C269.742 112.766 269.484 113.805 268.969 114.758C268.453 115.695 267.711 116.523 266.742 117.242C265.773 117.945 264.609 118.492 263.25 118.883C261.891 119.273 260.359 119.469 258.656 119.469C256.234 119.469 254.188 119.039 252.516 118.18C250.844 117.305 249.578 116.211 248.719 114.898C247.875 113.57 247.453 112.227 247.453 110.867H254.812C254.844 111.648 255.031 112.289 255.375 112.789C255.734 113.289 256.211 113.656 256.805 113.891C257.398 114.125 258.086 114.242 258.867 114.242C259.586 114.242 260.18 114.141 260.648 113.938C261.133 113.734 261.5 113.461 261.75 113.117C262 112.758 262.125 112.344 262.125 111.875ZM286.805 93.6406V99.125H271.523V93.6406H286.805ZM274.734 87.3359H282.633V110.727C282.633 111.398 282.711 111.922 282.867 112.297C283.023 112.656 283.289 112.914 283.664 113.07C284.055 113.211 284.57 113.281 285.211 113.281C285.664 113.281 286.039 113.273 286.336 113.258C286.633 113.227 286.914 113.188 287.18 113.141V118.789C286.508 119.008 285.805 119.172 285.07 119.281C284.336 119.406 283.555 119.469 282.727 119.469C281.039 119.469 279.594 119.203 278.391 118.672C277.203 118.141 276.297 117.305 275.672 116.164C275.047 115.023 274.734 113.539 274.734 111.711V87.3359ZM298.289 93.6406V119H290.367V93.6406H298.289ZM289.898 87.1016C289.898 85.9766 290.305 85.0547 291.117 84.3359C291.93 83.6172 292.984 83.2578 294.281 83.2578C295.578 83.2578 296.633 83.6172 297.445 84.3359C298.258 85.0547 298.664 85.9766 298.664 87.1016C298.664 88.2266 298.258 89.1484 297.445 89.8672C296.633 90.5859 295.578 90.9453 294.281 90.9453C292.984 90.9453 291.93 90.5859 291.117 89.8672C290.305 89.1484 289.898 88.2266 289.898 87.1016ZM310.922 99.0547V119H303.023V93.6406H310.43L310.922 99.0547ZM309.984 105.453L308.133 105.5C308.133 103.562 308.367 101.836 308.836 100.32C309.305 98.7891 309.969 97.4922 310.828 96.4297C311.688 95.3672 312.711 94.5625 313.898 94.0156C315.102 93.4531 316.438 93.1719 317.906 93.1719C319.078 93.1719 320.148 93.3438 321.117 93.6875C322.102 94.0312 322.945 94.5859 323.648 95.3516C324.367 96.1172 324.914 97.1328 325.289 98.3984C325.68 99.6484 325.875 101.195 325.875 103.039V119H317.93V103.016C317.93 102 317.789 101.227 317.508 100.695C317.227 100.148 316.82 99.7734 316.289 99.5703C315.758 99.3672 315.109 99.2656 314.344 99.2656C313.531 99.2656 312.844 99.4219 312.281 99.7344C311.719 100.047 311.266 100.484 310.922 101.047C310.594 101.594 310.352 102.242 310.195 102.992C310.055 103.742 309.984 104.562 309.984 105.453ZM346.195 93.6406H353.367V118.016C353.367 120.359 352.828 122.344 351.75 123.969C350.672 125.609 349.164 126.852 347.227 127.695C345.305 128.555 343.055 128.984 340.477 128.984C339.336 128.984 338.172 128.836 336.984 128.539C335.797 128.258 334.688 127.836 333.656 127.273C332.625 126.711 331.758 126.016 331.055 125.188L334.359 120.547C335 121.266 335.805 121.875 336.773 122.375C337.742 122.891 338.883 123.148 340.195 123.148C341.336 123.148 342.289 122.945 343.055 122.539C343.836 122.133 344.43 121.539 344.836 120.758C345.242 119.992 345.445 119.062 345.445 117.969V99.6406L346.195 93.6406ZM329.344 106.625V106.133C329.344 104.211 329.578 102.461 330.047 100.883C330.531 99.2891 331.219 97.9219 332.109 96.7812C333.016 95.625 334.109 94.7344 335.391 94.1094C336.672 93.4844 338.117 93.1719 339.727 93.1719C341.461 93.1719 342.883 93.5078 343.992 94.1797C345.117 94.8359 346.016 95.7578 346.688 96.9453C347.375 98.1328 347.906 99.5234 348.281 101.117C348.672 102.695 349 104.398 349.266 106.227V106.812C349 108.531 348.633 110.156 348.164 111.688C347.711 113.203 347.117 114.547 346.383 115.719C345.648 116.891 344.727 117.812 343.617 118.484C342.523 119.141 341.211 119.469 339.68 119.469C338.086 119.469 336.648 119.148 335.367 118.508C334.102 117.867 333.016 116.969 332.109 115.812C331.219 114.656 330.531 113.297 330.047 111.734C329.578 110.172 329.344 108.469 329.344 106.625ZM337.242 106.133V106.625C337.242 107.578 337.328 108.461 337.5 109.273C337.688 110.086 337.969 110.805 338.344 111.43C338.719 112.039 339.18 112.516 339.727 112.859C340.289 113.203 340.945 113.375 341.695 113.375C342.836 113.375 343.758 113.133 344.461 112.648C345.164 112.164 345.672 111.477 345.984 110.586C346.297 109.695 346.43 108.648 346.383 107.445V105.594C346.414 104.562 346.344 103.656 346.172 102.875C346 102.078 345.727 101.414 345.352 100.883C344.992 100.352 344.508 99.9531 343.898 99.6875C343.305 99.4062 342.586 99.2656 341.742 99.2656C341.008 99.2656 340.359 99.4375 339.797 99.7812C339.234 100.125 338.766 100.609 338.391 101.234C338.016 101.844 337.727 102.57 337.523 103.414C337.336 104.242 337.242 105.148 337.242 106.133Z" fill="black"/>
<path d="M1134 0H1348C1356.28 0 1363 6.71573 1363 15V148C1363 156.284 1356.28 163 1348 163H1134V0Z" fill="#0FA3B1"/>
<path d="M1210.62 43.625H1286.38V119.375H1210.62V43.625Z" fill="white" fill-opacity="0.01"/>
<path d="M1276.91 72.0312V105.172C1276.91 107.787 1274.79 109.906 1272.17 109.906H1224.83C1222.21 109.906 1220.09 107.787 1220.09 105.172V57.8281C1220.09 55.2134 1222.21 53.0938 1224.83 53.0938H1261.12" stroke="white" stroke-width="7.24" stroke-linecap="round" stroke-linejoin="round"/>
<path d="M1232.72 75.1875L1248.5 87.8125L1276.91 53.0938" stroke="white" stroke-width="7.24" stroke-linecap="round" stroke-linejoin="round"/>
</svg>
